<svg id="圖層_1" data-name="圖層 1" xmlns="http://www.w3.org/2000/svg" viewBox="0 0 383.11 98.31"><defs><style>.cls-1{fill:#83ba2f;}.cls-2{fill:none;stroke:#000;stroke-miterlimit:10;stroke-width:0.5px;}</style></defs><title>sweetness</title><path d="M256.71,221.51c.25,2,.37,3.22.37,3.53l-.19,4.13a30.38,30.38,0,0,1-.23,3.38,1.71,1.71,0,0,1-.69.19l-.42-.09q-1.49-6.5-5-9.47a13,13,0,0,0-8.65-3,12.68,12.68,0,0,0-8.68,3,9,9,0,0,0-3.39,6.91,7.88,7.88,0,0,0,2.37,5.53q2.37,2.5,12.11,7.49a79.54,79.54,0,0,1,10.63,6.28,16.47,16.47,0,0,1,4.82,5.65,15.48,15.48,0,0,1,1.63,7.15,18,18,0,0,1-2.58,9.33,16.62,16.62,0,0,1-6.93,6.58q-4.36,2.2-11.56,2.2a36.43,36.43,0,0,1-12-2,13.94,13.94,0,0,1-4.13-1.95,2.22,2.22,0,0,1-.74-1.58,12,12,0,0,1,.09-1.3,87.19,87.19,0,0,0,.7-9,8.19,8.19,0,0,1,.32-2.55.74.74,0,0,1,.7-.33.83.83,0,0,1,.67.3,2.24,2.24,0,0,1,.35,1.14,15.71,15.71,0,0,0,5.29,10.21,15.16,15.16,0,0,0,10.72,4.5,15,15,0,0,0,6.75-1.53,11.43,11.43,0,0,0,4.83-4.43,10.93,10.93,0,0,0,1.74-5.64,10.34,10.34,0,0,0-2.65-6.87q-2.64-3.11-10.62-7.26a81,81,0,0,1-10.4-6.05,22.82,22.82,0,0,1-5.84-6.59,13.13,13.13,0,0,1-1.44-6.27,14,14,0,0,1,5.1-10.93q5.1-4.47,13.69-4.48a27.72,27.72,0,0,1,8.17,1.07A19.61,19.61,0,0,1,256.71,221.51Z" transform="translate(-223.39 -217.7)"/><path d="M261.77,236.39l0-.52c.31-.39,1.16-.58,2.57-.58l3,0,1.75,0,.78,0c2.84,0,4.55,0,5.14.13,0,.26,0,.45,0,.58a8.47,8.47,0,0,1-.06.85l-3.11.13a3.52,3.52,0,0,0-.62.17,1.65,1.65,0,0,0-.13.48,1.7,1.7,0,0,0,.2.62c.17.37.33.76.49,1.18l2.05,5.73,4.88,12.26c.57,1.5.95,2.46,1.14,2.9q.92,2.06,2.32,5.73.48,1.28,2.34,5.51c.07.17.2.46.39.85q1.47-2.38,4.3-8.31a58.52,58.52,0,0,0,2.77-6.29l-.26-.66-5.6-12.73c-.73-1.58-1.31-2.85-1.72-3.78a10.47,10.47,0,0,0-1.87-3.36,8.61,8.61,0,0,0-3.46-.59l-.69-.16a.93.93,0,0,1-.26-.67.68.68,0,0,1,.29-.44l1.47,0,2.05.06,1,0h1.79l1.6,0h1.7l3.06-.17c.19,0,.49,0,.88,0l.52,0a1,1,0,0,1,.69.21.65.65,0,0,1,.22.48,1.28,1.28,0,0,1-.13.52,7.87,7.87,0,0,1-1.85.32,8.78,8.78,0,0,0-2.24.43.6.6,0,0,0-.31.52,45.75,45.75,0,0,0,2.52,6.55l3.33,7.53q1.53-3,4.16-9.45a11.78,11.78,0,0,0,1.11-4,1.71,1.71,0,0,0-.56-1.23,3.51,3.51,0,0,0-1.89-.53l-.68-.09-.59-.26,0-.27a1.43,1.43,0,0,1,.16-.55,1.24,1.24,0,0,1,.59-.29c.32-.05,1.83,0,4.53.16h2.21l1.37,0,2.28,0c.18,0,.44.08.79.16a.76.76,0,0,1,.26.49.74.74,0,0,1-.28.59,3,3,0,0,1-1.25.39,9.19,9.19,0,0,0-3.72,1.3,6,6,0,0,0-1.47,1.76l-2.37,5.28c-.56,1.61-1,2.82-1.4,3.62a13.73,13.73,0,0,1-.84,2L295.81,254c.23.57.64,1.48,1.2,2.74l3.36,7.79c.15.35.6,1.32,1.35,2.9s1.37,3.05,1.88,4.4l.48-1.56.07-.17,2-5.18c.7-1.58,1.39-3.26,2.09-5l2.5-6.32,3.78-10.75c.39-1.24.7-2.44.94-3.59l.1-.52a2.62,2.62,0,0,0,.1-.52,1.05,1.05,0,0,0-.46-.83,11.76,11.76,0,0,0-3.23-1,2.1,2.1,0,0,1-.52-.29,3.1,3.1,0,0,1-.1-.62l0-.23,1.73-.07,2.5.07,2.84,0h2.44l1,.06,0,.33a5.67,5.67,0,0,1-.06.68,19.49,19.49,0,0,0-2.93,1.31,3.39,3.39,0,0,0-.88.84,21.57,21.57,0,0,0-1.16,2.48q-.09.2-2,5.87a14.91,14.91,0,0,0-.88,2.25c-.09.26-.27.72-.56,1.4l-.52,1.3-.35.95q-2.14,5.93-4.72,12.41l-3.51,9.78-1.4,3.71a5.54,5.54,0,0,1-.75.07l-.63,0q-.44-1.22-1.87-4.57-3.74-8.53-6.72-14.17l-.39.65q-1.66,3.17-4,8.37L286,274a27.88,27.88,0,0,1-2.54,4.57l-1.49,0-5.27-12.91-4.35-10.23-3.84-9.71c-.26-.63-.49-1.23-.69-1.79s-.29-.84-.42-1.27c-.22-.68-.82-2.21-1.82-4.6a2.7,2.7,0,0,0-1.89-1.2A10.62,10.62,0,0,1,261.77,236.39Z" transform="translate(-223.39 -217.7)"/><path d="M323.1,276.31a1.57,1.57,0,0,1,.55-.35,9.7,9.7,0,0,1,1.89-.26,13,13,0,0,0,3.91-.59,3.14,3.14,0,0,0,.46-1.83l0-2.28,0-8.3-.06-3.91,0-8.2-.16-9.3c0-2.22-.17-3.47-.43-3.75s-1.55-.66-3.49-.72a14.89,14.89,0,0,1-2.18-.2.67.67,0,0,1-.42-.59,1.49,1.49,0,0,1,.16-.61,1.12,1.12,0,0,1,.52-.17c.31,0,.68,0,1.11,0a39.47,39.47,0,0,0,4,.19l2.41-.06,5.73.13c2.87,0,5.11,0,6.72-.1s2.69-.1,3.26-.1,1.73,0,3.71.13l4.63,0,.55.1,2.71-.1.32.16a1.7,1.7,0,0,1,.23.56,11.27,11.27,0,0,1-.14,1.4,11,11,0,0,0-.15,1.17c0,2.26.07,4.17.23,5.74a.34.34,0,0,1-.2.26,2.08,2.08,0,0,1-.63-.1,18.08,18.08,0,0,1-1-2.18,24.28,24.28,0,0,0-1.81-3.62,4.79,4.79,0,0,0-1.27-1.63,4.3,4.3,0,0,0-1.89-.26l-3-.07-1.4,0-9.29.2h-.82c-1.2,0-1.91.15-2.15.45-.37.52-.56,2.05-.56,4.6,0,.26.06,2.86.17,7.82v4.53a3.14,3.14,0,0,0,.78.1h.55l1.63,0q1.69.06,2.28.06.39,0,.69,0,3.51-.13,9.06-.13a3.79,3.79,0,0,0,2-.68,6.93,6.93,0,0,0,.73-3.07c.16-1.65.53-2.58,1.09-2.8a2.06,2.06,0,0,1,.79.16,2.25,2.25,0,0,1,.06.49q0,.22-.06.75-.17,1.21-.17,7.56,0,1.69.18,3.78t.18,2.25a3.76,3.76,0,0,1-.1.78.94.94,0,0,1-.42.13h-.23a11.91,11.91,0,0,1-1-2.83c-.56-2.2-1.16-3.57-1.78-4.12a4.4,4.4,0,0,0-3-.84l-1.66,0c-.81,0-2,.05-3.59.05h-2.11a54.9,54.9,0,0,0-5.94.2l0,1.08,0,6,0,3.79,0,3.69c0,2.22.17,3.5.43,3.85a3,3,0,0,0,2.41.72l2,0,2,0c1.19,0,2.65,0,4.39,0A40.91,40.91,0,0,0,355,275a7.22,7.22,0,0,0,3.44-1.91,22.8,22.8,0,0,0,3.41-5.92c.41-.89.82-1.34,1.23-1.34a1.18,1.18,0,0,1,.66.26,37.51,37.51,0,0,0-1.08,4.24,35.55,35.55,0,0,0-.42,4.66,3,3,0,0,1-.52,1.79H361l-9.16.1-4.1,0-9.78.13h-4c-.5,0-1,0-1.4,0q-5.87.25-8.64.26a1,1,0,0,1-.66-.16.58.58,0,0,1-.18-.47Z" transform="translate(-223.39 -217.7)"/><path d="M366.9,276.31a1.57,1.57,0,0,1,.55-.35,9.7,9.7,0,0,1,1.89-.26,13.05,13.05,0,0,0,3.92-.59,3.22,3.22,0,0,0,.45-1.83l0-2.28,0-8.3-.06-3.91,0-8.2-.16-9.3c0-2.22-.17-3.47-.43-3.75s-1.55-.66-3.48-.72a14.91,14.91,0,0,1-2.19-.2A.67.67,0,0,1,367,236a1.49,1.49,0,0,1,.16-.61,1.12,1.12,0,0,1,.52-.17c.31,0,.68,0,1.11,0a39.47,39.47,0,0,0,4,.19l2.41-.06,5.73.13c2.87,0,5.11,0,6.72-.1s2.69-.1,3.26-.1,1.73,0,3.71.13l4.63,0,.55.1,2.71-.1.32.16a1.7,1.7,0,0,1,.23.56,11.27,11.27,0,0,1-.14,1.4,11,11,0,0,0-.15,1.17c0,2.26.07,4.17.23,5.74a.33.33,0,0,1-.19.26,2.1,2.1,0,0,1-.64-.1,18.08,18.08,0,0,1-1-2.18,24.28,24.28,0,0,0-1.81-3.62,4.79,4.79,0,0,0-1.27-1.63,4.3,4.3,0,0,0-1.89-.26l-3-.07-1.4,0-9.29.2h-.82c-1.19,0-1.91.15-2.15.45-.37.52-.56,2.05-.56,4.6,0,.26.06,2.86.17,7.82v4.53a3.2,3.2,0,0,0,.78.1h.55l1.63,0q1.69.06,2.28.06.39,0,.69,0,3.51-.13,9.06-.13a3.79,3.79,0,0,0,2-.68,6.93,6.93,0,0,0,.73-3.07c.17-1.65.53-2.58,1.09-2.8a2,2,0,0,1,.79.16,2.25,2.25,0,0,1,.06.49q0,.22-.06.75-.17,1.21-.17,7.56,0,1.69.18,3.78t.18,2.25a3.76,3.76,0,0,1-.1.78.94.94,0,0,1-.42.13h-.23a11.91,11.91,0,0,1-1-2.83c-.56-2.2-1.16-3.57-1.77-4.12a4.45,4.45,0,0,0-3-.84l-1.66,0c-.81,0-2,.05-3.59.05h-2.11a54.9,54.9,0,0,0-5.94.2l0,1.08,0,6,0,3.79,0,3.69c0,2.22.17,3.5.43,3.85a3,3,0,0,0,2.41.72l2,0,2,0c1.19,0,2.65,0,4.39,0a40.91,40.91,0,0,0,8.37-.54,7.22,7.22,0,0,0,3.44-1.91,22.8,22.8,0,0,0,3.41-5.92c.41-.89.82-1.34,1.24-1.34a1.18,1.18,0,0,1,.65.26,37.51,37.51,0,0,0-1.08,4.24A35.55,35.55,0,0,0,406,275a3,3,0,0,1-.52,1.79h-.72l-9.16.1-4.1,0-9.78.13h-4c-.5,0-1,0-1.4,0q-5.87.25-8.63.26a1,1,0,0,1-.67-.16.58.58,0,0,1-.18-.47Z" transform="translate(-223.39 -217.7)"/><path d="M410.24,240l1.34-4.92a3,3,0,0,1,.36-1.26.67.67,0,0,1,.52-.27c.39,0,.84.46,1.34,1.4a4.42,4.42,0,0,0,.91,1.28,2.22,2.22,0,0,0,1,.38l.33,0,1.4.13,7.69.09,9.09,0h2.68l5.05-.09a6.85,6.85,0,0,1,.81.06c1.48.13,2.39.2,2.74.2a1,1,0,0,0,.78-.32c.07-.09.42-.81,1.08-2.16.28-.61.63-.91,1-.91a2.32,2.32,0,0,1,.65.12,4.8,4.8,0,0,1,.16,1.17l0,1.29,0,2.75q0,1-.16,6.47a1.54,1.54,0,0,1-.13.65,1.2,1.2,0,0,1-.62.22.57.57,0,0,1-.45-.24,4.88,4.88,0,0,1-.49-1.5,11,11,0,0,0-1.63-4.17,3.59,3.59,0,0,0-1.88-1.16,27.73,27.73,0,0,0-5.85-.36h-5.5c-.05.87-.07,1.67-.07,2.38l.26,20.26c0,.8,0,2.33-.13,4.57l0,4.33,0,2.42a2.65,2.65,0,0,0,.39,1.63,4.39,4.39,0,0,0,2.12.94c2,.51,3.34.81,4,.92a2.91,2.91,0,0,1,1,.26v1l-4.63-.12c-2.54,0-4.45-.07-5.73-.14l-4.76.22-3.49.2a12,12,0,0,1-1.79-.07l-.46-.19a1.63,1.63,0,0,1,.29-1,2.7,2.7,0,0,1,1.21-.35,26.74,26.74,0,0,0,3.23-.7,6.48,6.48,0,0,0,2.44-1,1.73,1.73,0,0,0,.46-1,35.26,35.26,0,0,0,.29-5.64v-5.54l-.13-12.09-.13-2.61,0-8.7h-5.25q-4.69,0-5.7.57c-1.07.59-2.65,2.32-4.76,5.19-.7,1.07-1.3,1.61-1.83,1.61l-.29-.07a.64.64,0,0,1-.13-.36,14.61,14.61,0,0,1,.52-2.34Q410.12,240.86,410.24,240Z" transform="translate(-223.39 -217.7)"/><path d="M451,237l0-1.57a72.75,72.75,0,0,0,7.4-.26c.61-.06,1-.09,1.27-.09l.88,0a18.41,18.41,0,0,1,2.54,2.6l.59.66,6.87,7.59,1,1.17q2.08,2.44,3.8,4.17t6.66,7.21l7.79,8.63q1.14,1.28,2.93,3.16l0-.52c-.13-3-.2-4.61-.2-4.79l.13-1.95-.06-3.07v-1.4q0-1.33-.23-8.24c0-.63-.11-1.82-.26-3.57s-.23-3.29-.23-4.61c0-2.39-.14-3.78-.42-4.18s-1.12-.57-2.77-.87c-.4,0-1-.09-1.83-.2a9.51,9.51,0,0,1-1.73-.16,1.24,1.24,0,0,1-.52-.56,2.86,2.86,0,0,1,.3-1,6.14,6.14,0,0,1,1.72-.26,14.34,14.34,0,0,1,2.27.23,15,15,0,0,0,2.42.23c1,0,2.56-.06,4.67-.2,1.19-.08,2-.12,2.47-.12H499l-.07,1a4,4,0,0,1-1.43.28,7.46,7.46,0,0,0-1.7.28,3.61,3.61,0,0,0-1.4.62,2.55,2.55,0,0,0-.78,1.73l.36,10.29.26,4.73,0,1.37.19,6.55q.19,6.71.2,11.67c0,.71,0,2.27-.13,4.66l-1.52.13q-1.14-1.3-7.86-8.22c-1-1.06-1.75-1.81-2.12-2.24l-2.8-3.23c-1.09-1.2-1.8-2-2.12-2.28l-.72-.72q-3.56-4-9.23-10.1c-1-1.09-2.52-2.78-4.49-5.09-1.24-1.45-2-2.34-2.35-2.67a13.13,13.13,0,0,0-1.34-1.11l-.1,1.11q0,6.36.33,17.53l.23,10.79c0,.91.07,1.79.16,2.64l1.14.26q3.1.3,6.1.88a3.45,3.45,0,0,0,.39.3l0,1.23a3,3,0,0,1-.84.17,8.08,8.08,0,0,1-.88-.07q-3.22-.25-7.86-.26c-2.17,0-4.08.05-5.73.16l-.46,0c-.2,0-.48,0-.85-.07l0-1,.85-.39,1.53-.23a14.86,14.86,0,0,0,3-.65,2.41,2.41,0,0,0,1-.68,44.9,44.9,0,0,0,.36-6.58c0-1.35,0-3.82-.1-7.4V256l-.07-9.25a39.87,39.87,0,0,0-.42-7.3,2.14,2.14,0,0,0-.81-1,6.84,6.84,0,0,0-3.25-1.11A21.16,21.16,0,0,1,451,237Z" transform="translate(-223.39 -217.7)"/><path d="M503.19,276.31a1.57,1.57,0,0,1,.55-.35,9.7,9.7,0,0,1,1.89-.26,13,13,0,0,0,3.91-.59,3.14,3.14,0,0,0,.46-1.83l0-2.28,0-8.3-.06-3.91,0-8.2-.16-9.3c0-2.22-.17-3.47-.43-3.75s-1.55-.66-3.49-.72a14.89,14.89,0,0,1-2.18-.2.67.67,0,0,1-.42-.59,1.49,1.49,0,0,1,.16-.61,1.12,1.12,0,0,1,.52-.17c.31,0,.68,0,1.11,0a39.47,39.47,0,0,0,4,.19l2.41-.06,5.73.13c2.87,0,5.11,0,6.72-.1s2.69-.1,3.26-.1,1.73,0,3.71.13l4.63,0,.55.1,2.71-.1.32.16a1.7,1.7,0,0,1,.23.56,10,10,0,0,1-.15,1.4c-.09.63-.14,1-.14,1.17,0,2.26.07,4.17.23,5.74a.34.34,0,0,1-.2.26,2.2,2.2,0,0,1-.64-.1,20.34,20.34,0,0,1-1-2.18,24.28,24.28,0,0,0-1.81-3.62,4.79,4.79,0,0,0-1.27-1.63,4.3,4.3,0,0,0-1.89-.26l-3-.07-1.4,0-9.29.2H518c-1.2,0-1.91.15-2.15.45-.37.52-.56,2.05-.56,4.6,0,.26.06,2.86.17,7.82v4.53a3.14,3.14,0,0,0,.78.1h.55l1.63,0q1.69.06,2.28.06.39,0,.69,0,3.51-.13,9.06-.13a3.79,3.79,0,0,0,2-.68,6.93,6.93,0,0,0,.73-3.07c.16-1.65.53-2.58,1.09-2.8a2,2,0,0,1,.78.16,1.81,1.81,0,0,1,.07.49,5.82,5.82,0,0,1-.07.75c-.1.81-.16,3.33-.16,7.56q0,1.69.18,3.78t.18,2.25a3.76,3.76,0,0,1-.1.78.94.94,0,0,1-.42.13h-.23a11.91,11.91,0,0,1-1-2.83c-.57-2.2-1.16-3.57-1.78-4.12a4.4,4.4,0,0,0-3-.84l-1.66,0c-.81,0-2,.05-3.59.05h-2.11a54.9,54.9,0,0,0-5.94.2l0,1.08,0,6,0,3.79,0,3.69c0,2.22.17,3.5.43,3.85a3,3,0,0,0,2.41.72l2,0,2,0c1.19,0,2.65,0,4.39,0a40.91,40.91,0,0,0,8.37-.54,7.22,7.22,0,0,0,3.44-1.91,22.8,22.8,0,0,0,3.41-5.92c.41-.89.82-1.34,1.23-1.34a1.18,1.18,0,0,1,.66.26,37.51,37.51,0,0,0-1.08,4.24,35.55,35.55,0,0,0-.42,4.66,3,3,0,0,1-.52,1.79h-.72l-9.16.1-4.11,0L518,277h-4c-.5,0-1,0-1.4,0q-5.86.25-8.64.26a1,1,0,0,1-.66-.16.58.58,0,0,1-.18-.47Z" transform="translate(-223.39 -217.7)"/><path d="M571.27,236.59c.17,1.43.26,2.26.26,2.48l-.13,2.9a22.21,22.21,0,0,1-.16,2.38,1.43,1.43,0,0,1-.49.13l-.3-.07q-1-4.56-3.53-6.65a9.16,9.16,0,0,0-6.08-2.08,8.88,8.88,0,0,0-6.09,2.08,6.28,6.28,0,0,0-2.38,4.86A5.54,5.54,0,0,0,554,246.5q1.66,1.75,8.5,5.26a55.54,55.54,0,0,1,7.47,4.41,11.51,11.51,0,0,1,3.39,4,11,11,0,0,1,1.14,5,12.64,12.64,0,0,1-1.81,6.55,11.7,11.7,0,0,1-4.87,4.62,18.12,18.12,0,0,1-8.12,1.55,25.72,25.72,0,0,1-8.44-1.4,9.74,9.74,0,0,1-2.9-1.37,1.56,1.56,0,0,1-.52-1.11,6.89,6.89,0,0,1,.07-.91,63,63,0,0,0,.48-6.32,5.88,5.88,0,0,1,.23-1.8.52.52,0,0,1,.49-.22.58.58,0,0,1,.47.21,1.62,1.62,0,0,1,.25.8,11.09,11.09,0,0,0,3.71,7.17,10.69,10.69,0,0,0,7.53,3.16,10.45,10.45,0,0,0,4.74-1.08,7.91,7.91,0,0,0,3.39-3.11,7.65,7.65,0,0,0,1.22-4,7.24,7.24,0,0,0-1.85-4.82q-1.86-2.19-7.47-5.1a55.51,55.51,0,0,1-7.3-4.26,16,16,0,0,1-4.1-4.62,9.13,9.13,0,0,1-1-4.4,9.84,9.84,0,0,1,3.58-7.68q3.59-3.13,9.62-3.14a19.42,19.42,0,0,1,5.73.75A13.57,13.57,0,0,1,571.27,236.59Z" transform="translate(-223.39 -217.7)"/><path d="M603.24,236.59c.17,1.43.26,2.26.26,2.48l-.13,2.9c0,1.23-.1,2-.16,2.38a1.43,1.43,0,0,1-.49.13l-.29-.07q-1-4.56-3.54-6.65a9.17,9.17,0,0,0-6.08-2.08,8.88,8.88,0,0,0-6.09,2.08,6.28,6.28,0,0,0-2.38,4.86A5.54,5.54,0,0,0,586,246.5q1.66,1.75,8.5,5.26a55.54,55.54,0,0,1,7.47,4.41,11.51,11.51,0,0,1,3.39,4,11,11,0,0,1,1.14,5,12.64,12.64,0,0,1-1.81,6.55,11.7,11.7,0,0,1-4.87,4.62,18.15,18.15,0,0,1-8.12,1.55,25.68,25.68,0,0,1-8.44-1.4,9.74,9.74,0,0,1-2.9-1.37,1.56,1.56,0,0,1-.52-1.11,6.89,6.89,0,0,1,.07-.91,63,63,0,0,0,.48-6.32,5.88,5.88,0,0,1,.23-1.8.52.52,0,0,1,.49-.22.58.58,0,0,1,.47.21,1.62,1.62,0,0,1,.25.8,11,11,0,0,0,3.71,7.17,10.69,10.69,0,0,0,7.53,3.16,10.45,10.45,0,0,0,4.74-1.08,7.91,7.91,0,0,0,3.39-3.11,7.67,7.67,0,0,0,1.23-4,7.3,7.3,0,0,0-1.86-4.82q-1.86-2.19-7.46-5.1a55.15,55.15,0,0,1-7.31-4.26,16,16,0,0,1-4.1-4.62,9.13,9.13,0,0,1-1-4.4,9.84,9.84,0,0,1,3.58-7.68q3.59-3.13,9.62-3.14a19.42,19.42,0,0,1,5.73.75A13.72,13.72,0,0,1,603.24,236.59Z" transform="translate(-223.39 -217.7)"/><path class="cls-1" d="M385.37,291v1.16h-2.65V291H380.4v18.55h2.32V308h2.65v1.57h2.35V291Zm0,16.14h-2.65V293h2.65Z" transform="translate(-223.39 -217.7)"/><path class="cls-1" d="M401,304.67v1.15h-8.31v-1.15h-2.43V316h2.43v-1.66H401V316h2.52V304.67Zm0,8.81h-8.31V310.4H401Zm0-3.9h-8.31v-2.9H401Z" transform="translate(-223.39 -217.7)"/><path class="cls-1" d="M404.63,303.89h0Z" transform="translate(-223.39 -217.7)"/><path class="cls-1" d="M404.63,303.89Z" transform="translate(-223.39 -217.7)"/><path class="cls-1" d="M404.81,301.73l-.69-1.69-.24-.6-.17,2.57a1.47,1.47,0,0,1-.1.37.8.8,0,0,1-.46.33,1.94,1.94,0,0,1-.78.08c-.5,0-1.79,0-3.08,0h-3.48c-1.12,0-1.19-.46-1.19-.79v-1.42h5.6v-.85h-5.6v-.68a32.16,32.16,0,0,0,3.14-2.07h5.89v-.86h-4.74a48.22,48.22,0,0,0,4.77-4.67l.51-.62-2.65-.64a16,16,0,0,1-1.09,1.5l-.26.3h-4.08v-3.31h-2.43V292h-3.89v.85h3.89v3.28h-5.17V297h6.63a39.83,39.83,0,0,1-7.46,4.82v.32l.09.15a36.91,36.91,0,0,0,4.72-2.08v1.89c0,1.66.22,2.23,2.93,2.23h3.66c5.48,0,4.87-.07,5.46-.42.25-.3.33-.39.39-1.18A6.19,6.19,0,0,0,404.81,301.73Zm-8.7-8.88h3.37a29.71,29.71,0,0,1-3.34,3.28h0Z" transform="translate(-223.39 -217.7)"/><path class="cls-1" d="M422.79,298.08h2v.86h-4.34v5.58h.88v-1.15h2.52v12.2h-2.52v-2.72h-4.37v2.72h-2.46v-12.2h2.46v1.15h1v-5.58h-4.63v-.86h4.63v-6.26h-4V291h10.2v.83h-3.68v6.26h2.38Zm-5.87,7.3V312h4.37v-6.62Zm21.2-10.11h1.23v.86h-2.46V316h-2.54v-2.83H429V316h-2.55V296.13h-2.25v-.86h2.25v-6.53H429v6.53h5.34v-6.53h2.54v6.53h1.23Zm-3.77.86H429v7.47h5.34Zm0,16.19v-7.86H429v7.86Z" transform="translate(-223.39 -217.7)"/><line class="cls-2" x1="0.63" y1="85.84" x2="139.91" y2="85.84"/><line class="cls-2" x1="232.31" y1="85.52" x2="380.78" y2="85.52"/></svg>